<svg xmlns="http://www.w3.org/2000/svg" viewBox="0 0 24 24" fill="none" stroke="#8b5cf6" stroke-width="1.5" stroke-linecap="round" stroke-linejoin="round">
  <path d="M12 2a4 4 0 0 0-4 4v1H6a4 4 0 1 0 0 8h.5"/>
  <path d="M17.5 15H18a4 4 0 1 0 0-8h-2V4a4 4 0 0 0-4-4"/>
  <path d="M7 17v-1a1 1 0 0 1 1-1h8a1 1 0 0 1 1 1v1a1 1 0 0 1-1 1H8a1 1 0 0 1-1-1Z"/>
  <path d="M12 7v7"/>
  <path d="M9 10h6"/>
  <circle cx="12" cy="4" r="1" />
  <circle cx="8" cy="9" r="1" />
  <circle cx="16" cy="9" r="1" />
  <path d="M9.5 15.5 7 16.5l1 2.5" />
  <path d="M14.5 15.5 17 16.5l-1 2.5" />
  <!-- Circuitos cerebrales -->
  <path d="M8.5 7.5C7.7 8.3 7 9.1 7 10" fill="none" stroke-dasharray="1,1" />
  <path d="M15.5 7.5c.8.8 1.5 1.6 1.5 2.5" fill="none" stroke-dasharray="1,1" />
  <!-- Puntos de conexión neuronal -->
  <circle cx="10" cy="12" r=".5" fill="#8b5cf6" />
  <circle cx="14" cy="12" r=".5" fill="#8b5cf6" />
  <circle cx="12" cy="14" r=".5" fill="#8b5cf6" />
</svg> 