<svg xmlns="http://www.w3.org/2000/svg" viewBox="0 0 24 24" fill="none">
  <defs>
    <linearGradient id="grad1" x1="0%" y1="0%" x2="100%" y2="100%">
      <stop offset="0%" style="stop-color:#a78bfa;stop-opacity:1" />
      <stop offset="100%" style="stop-color:#7c3aed;stop-opacity:1" />
    </linearGradient>
    <filter id="shadow" x="-20%" y="-20%" width="140%" height="140%">
      <feDropShadow dx="0" dy="1" stdDeviation="1" flood-color="#7c3aed" flood-opacity="0.3"/>
    </filter>
    <filter id="glow" x="-20%" y="-20%" width="140%" height="140%">
      <feGaussianBlur stdDeviation="0.5" result="blur"/>
      <feFlood flood-color="#a78bfa" flood-opacity="0.7" result="color"/>
      <feComposite in="color" in2="blur" operator="in" result="glow"/>
      <feComposite in="SourceGraphic" in2="glow" operator="over"/>
    </filter>
  </defs>
  
  <!-- Lóbulos cerebrales - efectos 3D -->
  <path d="M12 2.5c-2.2 0-4 1.8-4 4v1H6c-2.2 0-4 1.8-4 4s1.8 4 4 4h.5" 
    stroke="url(#grad1)" stroke-width="1.5" stroke-linecap="round" stroke-linejoin="round" filter="url(#shadow)"/>
  <path d="M17.5 15.5H18c2.2 0 4-1.8 4-4s-1.8-4-4-4h-2V6.5c0-2.2-1.8-4-4-4" 
    stroke="url(#grad1)" stroke-width="1.5" stroke-linecap="round" stroke-linejoin="round" filter="url(#shadow)"/>
  
  <!-- Conectores neurales -->
  <path d="M7 17v-1a1 1 0 0 1 1-1h8a1 1 0 0 1 1 1v1a1 1 0 0 1-1 1H8a1 1 0 0 1-1-1Z" 
    stroke="url(#grad1)" stroke-width="1.5" stroke-linecap="round" stroke-linejoin="round"/>
  <path d="M12 7v7M9 10h6" 
    stroke="url(#grad1)" stroke-width="1.5" stroke-linecap="round" stroke-linejoin="round"/>
  
  <!-- Nodos -->
  <circle cx="12" cy="4" r="1" fill="#a78bfa" filter="url(#glow)"/>
  <circle cx="8" cy="9" r="1" fill="#a78bfa" filter="url(#glow)"/>
  <circle cx="16" cy="9" r="1" fill="#a78bfa" filter="url(#glow)"/>
  
  <!-- Circuitos cerebrales con efecto brillante -->
  <path d="M9.5 15.5L7 16.5l1 2.5" stroke="#8b5cf6" stroke-width="1.5" stroke-linecap="round" stroke-linejoin="round"/>
  <path d="M14.5 15.5L17 16.5l-1 2.5" stroke="#8b5cf6" stroke-width="1.5" stroke-linecap="round" stroke-linejoin="round"/>
  <path d="M8.5 7.5C7.7 8.3 7 9.1 7 10" stroke="#a78bfa" stroke-width="1" stroke-dasharray="1,1"/>
  <path d="M15.5 7.5c.8.8 1.5 1.6 1.5 2.5" stroke="#a78bfa" stroke-width="1" stroke-dasharray="1,1"/>
  
  <!-- Puntos de conexión neuronal con brillo -->
  <circle cx="10" cy="12" r="0.7" fill="#c4b5fd" filter="url(#glow)"/>
  <circle cx="14" cy="12" r="0.7" fill="#c4b5fd" filter="url(#glow)"/>
  <circle cx="12" cy="14" r="0.7" fill="#c4b5fd" filter="url(#glow)"/>
  
  <!-- Pulsos neurales animados -->
  <circle cx="12" cy="10" r="0.3" fill="#ddd6fe">
    <animate attributeName="r" values="0.3;0.6;0.3" dur="2s" repeatCount="indefinite"/>
    <animate attributeName="opacity" values="1;0.5;1" dur="2s" repeatCount="indefinite"/>
  </circle>
  <circle cx="10" cy="14" r="0.3" fill="#ddd6fe">
    <animate attributeName="r" values="0.3;0.5;0.3" dur="1.5s" repeatCount="indefinite" begin="0.3s"/>
    <animate attributeName="opacity" values="1;0.6;1" dur="1.5s" repeatCount="indefinite" begin="0.3s"/>
  </circle>
  <circle cx="14" cy="14" r="0.3" fill="#ddd6fe">
    <animate attributeName="r" values="0.3;0.5;0.3" dur="1.8s" repeatCount="indefinite" begin="0.7s"/>
    <animate attributeName="opacity" values="1;0.6;1" dur="1.8s" repeatCount="indefinite" begin="0.7s"/>
  </circle>
</svg> 