<svg xmlns="http://www.w3.org/2000/svg" viewBox="0 0 24 24" fill="none" stroke="#8b5cf6" stroke-width="1.5" stroke-linecap="round" stroke-linejoin="round">
  <!-- Base del chip -->
  <rect x="5" y="5" width="14" height="14" rx="2" ry="2" />
  
  <!-- Circuitos internos -->
  <path d="M9 9h6M9 12h6M9 15h6" />
  <path d="M12 5v14" />
  
  <!-- Conectores -->
  <path d="M5 9H2M5 15H2" />
  <path d="M22 9h-3M22 15h-3" />
  <path d="M9 2v3M15 2v3" />
  <path d="M9 19v3M15 19v3" />
  
  <!-- Detalles de microcircuitos -->
  <circle cx="8" cy="8" r="1" />
  <circle cx="16" cy="8" r="1" />
  <circle cx="8" cy="16" r="1" />
  <circle cx="16" cy="16" r="1" />
  
  <!-- Elementos de IA -->
  <path d="M11 8h2M11 11h2M11 14h2" fill="none" stroke-dasharray="0.5,0.5" />
  <path d="M7.5 10.5L8 11l-.5.5" />
  <path d="M16.5 10.5L16 11l.5.5" />
  
  <!-- Puntos de procesamiento -->
  <circle cx="12" cy="12" r=".75" fill="#8b5cf6" />
  <circle cx="8" cy="12" r=".5" fill="#8b5cf6" />
  <circle cx="16" cy="12" r=".5" fill="#8b5cf6" />
</svg> 