<svg xmlns="http://www.w3.org/2000/svg" viewBox="0 0 24 24" fill="none">
  <defs>
    <linearGradient id="gradTeal1" x1="0%" y1="0%" x2="100%" y2="100%">
      <stop offset="0%" style="stop-color:#5eead4;stop-opacity:1" />
      <stop offset="100%" style="stop-color:#14b8a6;stop-opacity:1" />
    </linearGradient>
    <linearGradient id="gradTeal2" x1="100%" y1="0%" x2="0%" y2="100%">
      <stop offset="0%" style="stop-color:#2dd4bf;stop-opacity:1" />
      <stop offset="100%" style="stop-color:#0d9488;stop-opacity:1" />
    </linearGradient>
    <filter id="shadow-teal" x="-20%" y="-20%" width="140%" height="140%">
      <feDropShadow dx="0" dy="1" stdDeviation="0.5" flood-color="#0d9488" flood-opacity="0.4"/>
    </filter>
  </defs>

  <!-- Microservicio 1 - Servicio principal -->
  <rect x="9" y="4" width="6" height="6" rx="1" fill="url(#gradTeal1)" filter="url(#shadow-teal)"/>
  
  <!-- Microservicio 2 - Abajo izquierda -->
  <rect x="4" y="14" width="5" height="5" rx="1" fill="url(#gradTeal2)" filter="url(#shadow-teal)"/>
  
  <!-- Microservicio 3 - Abajo derecha -->
  <rect x="15" y="14" width="5" height="5" rx="1" fill="url(#gradTeal2)" filter="url(#shadow-teal)"/>
  
  <!-- Conectores -->
  <path d="M12 10v2.5L7 14" stroke="#14b8a6" stroke-width="1.2" stroke-linecap="round" stroke-linejoin="round"/>
  <path d="M12 10v2.5L17 14" stroke="#14b8a6" stroke-width="1.2" stroke-linecap="round" stroke-linejoin="round"/>
  
  <!-- Detalles internos microservicio 1 -->
  <path d="M11 6h2M11 7h2M11 8h2" stroke="#ccfbf1" stroke-width="0.7" stroke-linecap="round"/>
  
  <!-- Detalles internos microservicio 2 -->
  <path d="M5.5 16h2M5.5 17h2" stroke="#ccfbf1" stroke-width="0.7" stroke-linecap="round"/>
  
  <!-- Detalles internos microservicio 3 -->
  <path d="M16.5 16h2M16.5 17h2" stroke="#ccfbf1" stroke-width="0.7" stroke-linecap="round"/>
  
  <!-- API Gateway superior -->
  <rect x="10" y="2" width="4" height="1" rx="0.5" fill="#2dd4bf" filter="url(#shadow-teal)"/>
  <line x1="12" y1="2.5" x2="12" y2="4" stroke="#14b8a6" stroke-width="0.7"/>
  
  <!-- Puntos de conexión -->
  <circle cx="7" cy="14" r="0.7" fill="#5eead4"/>
  <circle cx="17" cy="14" r="0.7" fill="#5eead4"/>
  <circle cx="12" cy="10" r="0.7" fill="#5eead4"/>
  
  <!-- Database -->
  <path d="M6.5 19l0 1.5 M8.5 19l0 1.5" stroke="#14b8a6" stroke-width="0.7" stroke-linecap="round"/>
  <path d="M15.5 19l0 1.5 M17.5 19l0 1.5" stroke="#14b8a6" stroke-width="0.7" stroke-linecap="round"/>
  
  <!-- Animación de pulso de comunicación -->
  <circle cx="9.5" cy="12.5" r="0.3" fill="#5eead4">
    <animate attributeName="opacity" values="1;0.3;1" dur="1.5s" repeatCount="indefinite"/>
  </circle>
  <circle cx="14.5" cy="12.5" r="0.3" fill="#5eead4">
    <animate attributeName="opacity" values="1;0.3;1" dur="1.5s" repeatCount="indefinite" begin="0.4s"/>
  </circle>
</svg> 