<?xml version="1.0" encoding="UTF-8"?>
<svg width="256px" height="256px" viewBox="0 0 256 256" version="1.1" xmlns="http://www.w3.org/2000/svg" preserveAspectRatio="xMidYMid">
    <g>
        <path d="M119.878169,0.0449961598 C123.225067,-0.0144773788 126.505945,0.844937794 129.311337,2.64345063 L230.611159,61.7767332 C236.238072,64.9753367 239.998494,70.9373775 240,77.4771083 L240,195.745399 C239.998494,202.28513 236.238072,208.247171 230.611159,211.445774 L129.311337,270.579057 C123.642425,273.801047 116.636387,273.801047 110.967475,270.579057 L69.3928922,246.894111 C67.7522198,245.926189 65.8347414,245.488676 64.0153055,245.649553 C57.1210279,246.457348 50.4500948,243.671367 46.2011797,238.279372 C44.6671348,236.694649 43.5417132,234.787385 42.9298262,232.709899 C42.5460429,231.403117 42.3622614,230.042241 42.3851789,228.676271 C42.3851789,222.41382 47.0272614,219.601922 54.5237392,219.601922 C56.8661639,219.601922 58.7534781,219.993272 61.0959028,220.973272 L98.5011797,242.422111 C100.491576,243.539617 102.837293,243.539617 104.827689,242.422111 L206.127511,183.288828 C208.166305,182.158683 209.474731,180.042819 209.474731,177.745399 L209.474731,95.4771083 C209.474731,93.1796888 208.166305,91.0638245 206.127511,89.9336797 L104.827689,30.8003964 C102.837293,29.6828908 100.491576,29.6828908 98.5011797,30.8003964 L-2.79893579,89.9336797 C-4.83772989,91.0638245 -6.14615559,93.1796888 -6.14615559,95.4771083 L-6.14615559,177.745399 C-6.14615559,180.042819 -4.83772989,182.158683 -2.79893579,183.288828 L34.7888203,204.737667 C42.2851981,208.53072 48.8967837,208.139371 52.6367837,208.139371 C65.0217837,208.139371 72.5182614,200.356271 72.5182614,189.619371 L72.5182614,108.33072 C72.5182614,107.35072 72.1182614,106.37072 71.7182614,105.78072 C71.3182614,105.19072 70.5182614,104.60072 69.7182614,104.60072 L60.3182614,104.60072 C59.5182614,104.60072 58.7182614,105.19072 58.3182614,105.78072 C57.9182614,106.37072 57.5182614,107.35072 57.5182614,108.33072 L57.5182614,189.619371 C57.5182614,193.412423 53.7782614,197.402423 46.2817837,197.402423 C43.5467837,197.402423 40.4167837,196.422423 35.7746981,193.804674 L-0.418679865,173.139371 C-6.04559315,169.940768 -9.80601459,164.001727 -9.80747847,157.461996 L-9.80747847,39.1937055 C-9.80601459,32.6539747 -6.04559315,26.6919339 -0.418679865,23.4933304 L100.881142,2.64345063 C103.686535,0.844937794 106.967412,-0.0144773788 110.31431,0.0449961598 L119.878169,0.0449961598 Z M146.665803,76.9937055 C170.817689,76.9937055 183.665803,86.7506213 186.795803,103.620621 C187.195803,105.580621 185.625803,106.560621 183.665803,106.560621 L173.865803,106.560621 C172.285803,106.560621 170.915803,105.580621 170.515803,103.620621 C168.155803,94.2537055 161.245803,90.4606213 146.665803,90.4606213 C134.605803,90.4606213 128.485803,93.9806213 128.485803,101.170621 C128.485803,109.737667 134.605803,111.697667 150.165803,113.657667 C169.685803,116.207667 182.135803,120.590721 182.135803,136.677667 C182.135803,153.547667 167.725803,162.717667 148.625803,162.717667 C127.505803,162.717667 114.265803,154.527667 111.925803,136.087667 C111.725803,134.127667 113.095803,133.147667 115.055803,133.147667 L124.855803,133.147667 C126.235803,133.147667 127.705803,134.127667 128.105803,135.497667 C130.265803,144.667667 136.785803,149.250721 148.825803,149.250721 C162.465803,149.250721 167.135803,144.667667 167.135803,137.657667 C167.135803,128.487667 162.665803,127.507667 147.845803,125.157667 C128.485803,122.607667 113.485803,118.617667 113.485803,101.760621 C113.485803,86.3606213 126.925803,76.9937055 146.665803,76.9937055 L146.665803,76.9937055 Z" fill="#539E43"></path>
    </g>
</svg> 