<?xml version="1.0" encoding="UTF-8"?>
<svg width="256px" height="256px" viewBox="0 0 256 256" version="1.1" xmlns="http://www.w3.org/2000/svg" preserveAspectRatio="xMidYMid">
    <g>
        <path d="M210.483381,73.8236374 C207.827698,72.9095503 205.075867,72.0446761 202.24247,71.2267368 C202.708172,69.3261098 203.135596,67.4500894 203.515631,65.6059664 C209.753843,35.3248922 205.675082,10.9302478 191.747328,2.89849283 C178.392359,-4.80289661 156.551327,3.22703567 134.492936,22.4237776 C132.371761,24.2697233 130.244662,26.2241201 128.118477,28.2723861 C126.701777,26.917204 125.287358,25.6075897 123.876584,24.3549348 C100.758745,3.82852863 77.5866802,-4.82157937 63.6725966,3.23341515 C50.3303869,10.9571328 46.3792156,33.8904224 51.9945178,62.5880206 C52.5367729,65.3599011 53.1706189,68.1905639 53.8873982,71.068617 C50.6078941,71.9995641 47.4418534,72.9920277 44.4125156,74.0478303 C17.3093297,83.497195 0,98.3066828 0,113.667995 C0,129.533287 18.5815786,145.446423 46.8116526,155.095373 C49.0394553,155.856809 51.3511025,156.576778 53.7333796,157.260293 C52.9600965,160.37302 52.2875179,163.423318 51.7229345,166.398431 C46.3687351,194.597975 50.5500231,216.989464 63.8566899,224.664425 C77.6012619,232.590464 100.66852,224.443422 123.130185,204.809231 C124.905501,203.257196 126.687196,201.611293 128.472081,199.886102 C130.785552,202.113904 133.095375,204.222319 135.392897,206.199955 C157.14963,224.922338 178.637969,232.482469 191.932332,224.786092 C205.663234,216.837268 210.125675,192.78347 204.332202,163.5181 C203.88974,161.283006 203.374826,158.99961 202.796573,156.675661 C204.416503,156.196743 206.006814,155.702335 207.557482,155.188332 C236.905331,145.46465 256,129.745175 256,113.667995 C256,98.2510906 238.132466,83.3418093 210.483381,73.8236374 Z" fill="#00D8FF"></path>
        <path d="M201.345395,142.849324 C199.916151,143.311596 198.46335,143.766841 196.988715,144.211875 C194.811151,135.693338 191.764628,126.736683 187.914137,117.564658 C191.561245,108.678418 194.473474,99.8691288 196.570123,91.4470982 C199.200755,92.2149722 201.75838,93.0377376 204.220346,93.9178764 C228.666758,102.305695 244.525689,115.049464 244.525689,123.200723 C244.525689,131.889137 227.315859,145.504021 201.345395,142.849324 Z" fill="#00D8FF"></path>
        <path d="M193.822494,157.811107 C194.374144,160.103234 194.844895,162.338522 195.234439,164.506974 C200.446111,190.555161 196.693517,211.456726 185.291122,217.876174 C173.387275,224.604245 153.626447,217.638637 133.565449,200.570411 C131.432984,198.725832 129.300517,196.764961 127.175132,194.695834 C134.134252,186.916069 141.093372,177.851538 147.962114,167.696441 C159.863791,166.516478 171.219327,164.694345 181.692288,162.283737 C182.235127,164.288259 182.721743,166.246849 183.150071,168.152573 C183.150071,168.152573 183.150071,168.152573 193.822494,157.811107 Z" fill="#00D8FF"></path>
        <path d="M87.2761866,214.514686 C75.5938355,220.625084 66.0727961,220.550067 60.0827988,214.999674 C53.6902474,209.067432 51.6017808,189.717381 56.2281462,165.774552 C56.7571365,163.020046 57.3789514,160.202756 58.0913042,157.34634 C68.4186454,159.636022 79.6668273,161.339674 91.3880831,162.436613 C98.3103848,172.296585 105.393575,181.223775 112.458744,188.952347 C110.482264,190.873331 108.509266,192.687057 106.544616,194.386959 C100.322589,199.901996 93.7390461,207.571974 87.2761866,214.514686 Z" fill="#00D8FF"></path>
        <path d="M50.3486141,144.746959 C37.8658089,140.48046 27.5570356,134.935332 20.4908634,128.884403 C14.1414664,123.446815 11.2846557,118.048415 11.2846557,113.667995 C11.2846557,105.366014 27.9891432,92.4645445 52.8021696,84.1827321 C55.8560245,83.1089096 59.0969505,82.1024331 62.4344964,81.1675704 C64.5996445,89.7572978 67.4870162,98.6632976 70.9874909,107.722772 C67.4133694,116.998591 64.4559026,126.120906 62.2349624,134.870552 C58.2496296,134.188161 54.4087314,133.403924 50.3486141,144.746959 Z" fill="#00D8FF"></path>
        <path d="M156.916971,70.9309783 C160.722674,76.0534892 164.489806,81.4614785 168.179104,87.0782686 C151.536167,84.5341831 134.291589,83.0912307 117.001207,82.8089088 C110.433804,72.5341302 103.690121,63.4681429 96.9321526,55.8148313 C99.0620724,53.7796281 101.200744,51.8428471 103.344747,50.0121475 C121.903368,33.8354147 140.881866,26.2496635 150.889518,31.6481359 C161.435384,37.2975446 165.141685,58.8954716 156.916971,70.9309783 Z" fill="#00D8FF"></path>
        <path d="M128.000001,90.8015714 C139.901134,90.8015714 149.567871,100.468309 149.567871,112.369442 C149.567871,124.270575 139.901134,133.937312 128.000001,133.937312 C116.098868,133.937312 106.432131,124.270575 106.432131,112.369442 C106.432131,100.468309 116.098868,90.8015714 128.000001,90.8015714" fill="#00D8FF"></path>
    </g>
</svg> 