<?xml version="1.0" encoding="UTF-8"?>
<svg width="256px" height="256px" viewBox="0 0 256 256" version="1.1" xmlns="http://www.w3.org/2000/svg" preserveAspectRatio="xMidYMid">
    <g>
        <rect fill="#3178C6" x="0" y="0" width="256" height="256" rx="28"></rect>
        <path d="M56.6112759,128.037973 L56.6112759,142.314891 L82.7672842,142.314891 L82.7672842,212.692154 L107.947619,212.692154 L107.947619,142.314891 L134.085711,142.314891 L134.085711,128.037973 L56.6112759,128.037973 Z" fill="#FFFFFF"></path>
        <path d="M208.411359,145.808273 C208.411359,132.64436 204.652211,122.592561 197.133914,115.652877 C189.73047,108.713193 180.242173,105.243351 168.668876,105.243351 C157.095579,105.243351 147.607282,108.713193 140.203838,115.652877 C132.800394,122.592561 129.098662,132.64436 129.098662,145.808273 C129.098662,158.972187 132.800394,169.023986 140.203838,175.96367 C147.607282,182.903354 157.095579,186.373196 168.668876,186.373196 C180.242173,186.373196 189.73047,182.903354 197.133914,175.96367 C204.652211,169.023986 208.411359,158.972187 208.411359,145.808273 Z M183.231608,145.808273 C183.231608,152.747957 181.852033,158.028196 179.092882,161.649038 C176.333731,165.26988 172.917154,167.080301 168.668876,167.080301 C164.420598,167.080301 160.947437,165.26988 158.188286,161.649038 C155.429135,158.028196 154.10606,152.747957 154.10606,145.808273 C154.10606,138.868589 155.429135,133.58835 158.188286,129.967508 C160.947437,126.346666 164.420598,124.536245 168.668876,124.536245 C172.917154,124.536245 176.333731,126.346666 179.092882,129.967508 C181.852033,133.58835 183.231608,138.868589 183.231608,145.808273 Z" fill="#FFFFFF"></path>
    </g>
</svg> 